<svg version="1" xmlns="http://www.w3.org/2000/svg" width="1822.667" height="1822.667" viewBox="0 0 1367.000000 1367.000000"><path d="M234 164.5c-4.3 4.4-1.9-2.6-65 185.5-13.2 39.5-41.9 124.9-95.7 285-9.4 27.8-21.2 62.9-26.3 78-5.1 15.1-11.7 34.5-14.5 43-2.9 8.5-5.9 16.9-6.8 18.7-1.2 2.2-1.7 5.7-1.7 11.1 0 7.5.1 7.9 3.2 10.9 3.8 3.5 9.4 7.3 31.3 21 8.8 5.5 21.9 13.8 29 18.3 7.2 4.6 19.5 12.4 27.5 17.5 26.5 16.8 63.2 40 91.5 58 15.4 9.8 36.3 23.1 46.5 29.5 10.2 6.4 27.7 17.5 39 24.7 18.6 11.8 41.5 26.2 86.5 54.8 8.8 5.6 29.1 18.4 45 28.5 16 10.1 34.6 21.9 41.5 26.3 22.2 14.1 48.8 31 63.3 40.1 19 11.9 64.9 41 71.2 45.1 2.8 1.8 12.4 7.9 21.5 13.7 25.3 15.9 31.4 19.8 41.7 26.5l9.5 6.3h15.1l13.1-8.4c7.2-4.6 21.7-13.6 32.1-20.1 10.5-6.5 24.2-15 30.5-19 6.3-4 18.9-11.9 28-17.5 9.1-5.6 18.8-11.7 21.5-13.5 2.8-1.7 16.5-10.3 30.5-19s27.1-16.8 29-18c10.9-6.9 62.2-38.9 79-49.3 5.8-3.6 12.8-7.9 15.5-9.7 2.8-1.8 14.7-9.2 26.5-16.5 11.8-7.3 26.2-16.3 32-20 5.8-3.7 31-19.4 56-35 79.9-49.7 138.4-86.2 143.5-89.5 2.8-1.8 8.8-5.6 13.5-8.5 9.4-5.9 8.6-5.4 59.5-37 20-12.4 38.1-24.3 40.8-26.9l4.7-4.5v-6.9c0-4.1-.6-8-1.5-9.7-.8-1.6-4.7-12.5-8.6-24.2-4-11.7-17.9-53.3-31.1-92.3-13.2-39.1-32.2-95.5-42.3-125.5-26.4-78.8-34.1-101.7-66.5-198-50.8-151.1-55-163.8-55-166.5 0-1.6-1.4-4.1-3.7-6.6l-3.8-4-446.3-.2-446.3-.2-3.9 4zm889.4 10.7c.2.7 6.9 21.1 15 45.3 8 24.2 15.7 47.4 17 51.5 1.4 4.1 9.3 27.7 17.7 52.5 8.3 24.7 30.6 91.1 49.6 147.5 35.3 105.3 45.2 134.8 73.8 219.5 9.1 26.9 19.3 57.3 22.6 67.5 3.4 10.2 7 20.6 8.1 23.2 1.7 4 1.8 5.1.7 6.4-1.8 2.2-28.8 19.6-62.2 39.9-8.9 5.5-35.1 21.9-43.2 27-2.7 1.8-13.5 8.5-24 15-10.4 6.4-21.2 13.2-24 15-2.7 1.7-11.7 7.4-20 12.5-8.2 5.1-17.2 10.7-20 12.5-2.7 1.7-12.9 8-22.5 14s-21.5 13.4-26.5 16.5c-4.9 3.2-15.7 9.9-24 15-27.7 17.2-65.9 41.1-78.5 49-4.1 2.6-16 10-26.5 16.5-10.4 6.5-24.2 15.1-30.5 19.1-6.3 4-14.6 9.2-18.5 11.5-3.8 2.3-13.5 8.3-21.5 13.4l-32 20c-9.6 5.9-21.5 13.3-26.5 16.5-4.9 3.1-21.9 13.7-37.8 23.6-15.8 9.8-34 21.2-40.5 25.3-6.4 4-14.4 9-17.7 11-3.3 2.1-15.9 9.9-28.1 17.4-12.2 7.5-23 13.7-24 13.7s-5.2-2.2-9.1-4.8c-4-2.6-13.9-8.9-22-14-8.2-5.2-27.6-17.5-43.3-27.4-15.7-9.9-36.8-23.3-47-29.8-10.2-6.4-32.2-20.4-49-31-16.8-10.6-39.7-25.2-51-32.3-11.3-7.2-23.2-14.7-26.5-16.8-3.3-2.1-15.2-9.7-26.5-16.8-11.3-7.1-24.8-15.7-30-19-5.2-3.3-16.2-10.3-24.5-15.5-8.2-5.2-18.8-12-23.5-15-4.7-3-17.7-11.2-29-18.3-11.3-7.1-29.9-18.9-41.5-26.2-11.5-7.4-27.5-17.5-35.5-22.6-8-5-22.9-14.5-33.2-21.1-10.3-6.5-21.6-13.7-25.1-15.9-9.6-6.1-29.2-18.5-36.6-23.2-3.6-2.3-9.1-5.7-12.1-7.6-3-1.9-11.6-7.3-19-12-7.4-4.8-19.6-12.4-27-17.1-25.8-16.2-29.5-19-29.4-21.7.1-1.3 6.3-20.4 13.8-42.4 7.5-22 21.5-63.4 31.1-92 9.6-28.6 27.5-81.9 39.8-118.5 12.3-36.6 32.1-95.5 44-131 12-35.5 30.1-89.3 40.3-119.5 10.2-30.3 19.2-57 19.9-59.5 1.4-4.8 13.6-40.6 15.4-45.3l1.1-2.7h439.5c350.8 0 439.6.3 439.9 1.2z"/><path d="M292.8 243.1c-1 .5-1.8 1.8-1.8 2.7 0 1.8-10.4 33-43.5 130.7-10.3 30.2-19.5 57.7-20.5 61-1 3.3-8.4 25.3-16.4 49-8.1 23.6-15.3 45-16 47.5-1.6 5.1-32.2 96.1-36.5 108.5-1.6 4.4-5.1 15-7.9 23.5-10.8 32.9-26.4 78.6-28.9 84.8-3.1 7.7-2.9 8.3 5 13.2 12.9 8 27.4 17.1 49.2 30.8 12.7 8 27.4 17.2 32.7 20.6 5.4 3.4 16.4 10.3 24.5 15.4 8.2 5.2 28.8 18.1 45.8 28.8 17.1 10.7 34.6 21.7 39 24.4 4.4 2.8 14.6 9.2 22.7 14.3 8.1 5.1 22.5 14.1 32 20.2 9.5 6 29.4 18.5 44.1 27.7 14.8 9.2 29.2 18.3 32 20.2 2.9 1.8 16.2 10.2 29.7 18.6 13.5 8.4 30.6 19.1 38 23.8 7.4 4.7 17.8 11.2 23 14.5 5.2 3.3 11.5 7.3 14 8.8 14.3 9.1 52.8 33.2 66.5 41.7 20.5 12.7 39.4 24.7 52 33 9.2 6 10.1 6.4 12.2 5.1 1.2-.8 15.8-10 32.5-20.5 16.7-10.6 40.8-25.7 53.6-33.8 12.7-8 33.7-21.2 46.5-29.2 12.7-8.1 39.9-25.1 60.2-37.9 33.5-21 112.5-70.7 130-81.7 28.8-18.2 46.4-29.2 76-47.8 18.7-11.7 36.3-22.8 39-24.5 2.8-1.8 16.7-10.6 31-19.5 28.2-17.7 50.1-31.4 58-36.5 2.8-1.8 11.1-7 18.5-11.5 7.4-4.6 14.3-9 15.3-9.8 1.8-1.6 2.3-6.2.8-7.7-.5-.6-8.6-24-18-52-9.4-28.1-27.2-81.2-39.6-118-12.4-36.9-28.6-85-36-107-64.8-193.1-77.2-229.4-78.5-231-1.1-1.3-43.1-1.5-389.9-1.5-262.1.1-389.2.4-390.3 1.1zm647.8 15c2 1.6 1.8 4.6-.6 7.9-2 2.8-5.2 5.4-39 31-11.3 8.5-22.3 16.9-24.5 18.6-13.9 10.7-28.5 21.3-31.2 22.8-3.6 1.8-13.7 2.2-17.7.6-3.8-1.4-3.2-3.5 2.2-7.2 2.6-1.8 17.1-12.9 32.2-24.7 15.1-11.8 32.5-25.3 38.5-30 6.1-4.6 13.9-10.8 17.5-13.6 3.6-2.8 7.4-5.7 8.5-6.4 2.4-1.4 12-.8 14.1 1zm88.1-.8l37.1 1.2 2.7 2.5c1.5 1.4 3.3 3.8 4.2 5.3 2.1 4.2 4.3 16.8 4.3 25.2 0 8.1-.2 8.6-8.5 15.2-11.9 9.6-118.6 89.3-119.5 89.3-1.3 0-2-1.8-5.9-15.5-4-13.6-12.6-32.9-15.8-35.5-4.3-3.4-25.2-6.7-46.8-7.3-9.6-.2-10.4-1.6-3.4-6.2 2.5-1.7 10.6-7.6 18-13.1s21.3-15.8 30.9-22.9c9.6-7.1 22.5-16.5 28.5-21 26.9-20 24.3-18.4 31-18.4 3.3 0 22.7.6 43.2 1.2zm-630.1 10c39 29 82.6 61.1 89.1 65.6 10.4 7.2 10.3 8.5-.7 8.8-11.6.4-35.6 3.1-41 4.7-3.4 1-5.1 2.3-7.1 5.2-5.6 8.5-16.9 37.9-16.9 44.1 0 3.2-2.6 4.9-4.9 3.2-1-.8-4.1-3-6.7-4.8-4.3-3.1-31.2-23.3-95.4-71.7-9.7-7.2-19.1-14.6-20.9-16.3l-3.4-3.2.6-11.2c.7-15.5 4-24.6 10.2-28 1.9-1.1 46.2-3.2 74.6-3.5l12.6-.2 9.9 7.3zm44.7-4.9c2 1.4 8.9 6.7 15.4 11.7 6.5 5.1 16.3 12.8 21.8 17 5.5 4.2 16.1 12.5 23.5 18.3 7.4 5.8 19.2 15 26.3 20.3 7 5.3 12.7 10.2 12.7 10.9 0 1.6-6.2 3.4-11.8 3.4-7.5 0-6.5.7-60.2-40.1-47.9-36.4-44.2-33.2-44.4-38.6-.1-3.1.3-3.8 2.4-4.4 5.4-1.5 10.6-1 14.3 1.5zm638.7 51.1c3.3 1.7 4.7 5.6 3.4 9.1-.5 1.3-6.1 6.6-12.5 11.6-6.3 5.1-19.4 15.6-29 23.2-9.6 7.7-21.7 17.4-26.9 21.6-5.2 4.2-14.2 11.4-20 16-5.8 4.6-14.3 11.5-19 15.2-4.7 3.8-9.6 7.1-10.9 7.5-3.1.8-10.1-1.6-11.5-3.9-.7-1.2-.4-2.9 1.3-6.6 1.9-4 4.4-6.6 13-13.4 5.8-4.6 24.8-19.6 42.1-33.3 17.3-13.7 37.8-29.9 45.5-36 7.7-6.2 14.7-11.4 15.5-11.8 2.7-1 6.1-.7 9 .8zm-782.1 6.7c5.7 4.3 49.9 39.1 87.9 69.3 21.3 16.8 25.2 20.9 25.2 26.4 0 2.6-3.8 5.1-8.7 5.8-4.3.6-6-.6-41.4-29.2-10.3-8.2-21.8-17.5-25.6-20.5-24.1-19.1-47.4-38-51-41.3-4.6-4.3-5.3-6.8-2.7-10.5 3.7-5.4 9.2-5.4 16.3 0zm615.4 34.2c1.2 1.3 3 4.3 3.9 6.7.9 2.4 3.5 8.9 5.8 14.4 2.4 5.5 5 12 6 14.5 2 5 22.2 54.1 27.5 66.5 1.9 4.4 6.1 14.7 9.5 23 3.4 8.2 8.4 20.4 11.2 27 2.8 6.6 7.9 19 11.4 27.5 3.4 8.5 7.6 18.8 9.3 22.9 1.7 4.1 3.1 8.4 3.1 9.7 0 2.3-9.2 8.8-49.5 34.9-2.7 1.8-11 7.1-18.3 11.9-7.3 4.7-14 8.6-15 8.6-1.5 0-20.3-19.8-22.6-23.7-.5-1-.1-2.4 1.3-4.2 10.5-13.2 18.1-27 22.1-39.6 3-9.8 3.9-28.6 1.6-37.5-3.6-14.3-13.7-28.1-25.1-34.2-7.7-4.1-19.2-7.6-27.5-8.4-8.9-.8-25.7 2.1-36.6 6.2-27.9 10.5-52.1 32.1-65.4 58.4-24.9 49.4-1.1 96 49.1 96 19 0 36-5.5 55.7-18 2.9-2 3.7-1.4 14.6 10.3 8.9 9.7 8.9 9.7 7 11.8-1.8 2-39 27.1-44.3 29.9-2.8 1.4-8.5 1.2-42.1-2-11.3-1-26.5-2.4-33.9-3l-13.4-1.1-17.1 11.4C708.2 698 687.3 711 684.9 711c-.8 0-4.2-1.7-7.6-3.8-7.5-4.5-42.1-26-55.3-34.4-5.2-3.3-10.4-6.4-11.5-6.8-1.2-.4-5.9-.4-10.5.1-4.7.4-19.1 1.5-32 2.4-12.9.9-27.7 1.9-32.8 2.3-6.4.5-10.2.4-12.1-.4-7.7-3.3-52.1-32.1-52-33.8 0-.6 4.7-6 10.4-12.1l10.5-10.9 3.7 2.2c8.5 5.1 24.3 12.4 32.3 14.8 7.3 2.2 10.5 2.6 22.1 2.6 15 .1 22-1.5 32.9-7.6 12.8-7.1 23.1-21.9 26.5-38.1 1.9-9.2 1.8-14.2-.4-24.5-6-26.8-21.4-50-45-67.8-9.7-7.3-28-16.4-38.6-19.3-11.2-3-28.8-3.7-37.5-1.4-25.7 6.6-40 22.3-44.1 48.6-2.9 19.1 8.1 49.6 25 68.8 1.2 1.3 2.1 2.7 2.1 3.2 0 1.8-23.1 26.9-24.9 26.9-1 0-3.5-1.5-37.9-22.9-29.4-18.4-38-24.1-38.7-25.9-.4-1.1 14.3-42.3 20-56.2.8-1.9 5.1-13.4 9.6-25.5 4.4-12.1 11.7-31.7 16.1-43.5 4.4-11.8 11.1-30.1 15-40.5 3.9-10.5 8.1-21.9 9.5-25.5 1.3-3.6 3.9-10.6 5.8-15.7s3.9-10.1 4.5-11.3l1.1-2 229.7-.3c126.3-.1 230.3-.3 231-.5.7-.1 2.3.9 3.5 2.2zm46 276.3c15.8 14.4 46.2 42.5 68.2 63.3 12.7 11.8 29.3 27.4 37 34.5 7.7 7.1 17.8 16.6 22.5 21 12.4 11.9 47.7 44.6 51.1 47.3 1.6 1.3 2.9 3.3 2.9 4.4 0 2.1-8.6 10.7-10.8 10.8-1.2 0-28.8-25-49.7-45.1-4.4-4.2-27.8-26-52-48.5-65.6-60.9-85.3-79.4-85.9-81.1-1.5-3.9 0-9.5 3.3-12 3.2-2.5 6-1.4 13.4 5.4zm-540.4-3.1c1.4 1.7 2.1 4.1 2.1 6.8 0 3.8-.6 4.6-9.2 13.1-5.1 5-18.8 17.8-30.4 28.5-11.6 10.7-34.3 31.8-50.5 46.9-16.2 15.1-35.2 32.9-42.4 39.6-7.1 6.6-19.5 18.1-27.4 25.5-19.6 18.4-27 25-28.1 25-1.7 0-11-9.3-11-10.9 0-.9 2.1-3.5 4.7-5.6 2.7-2.2 12.5-11.2 21.8-20 9.4-8.8 24-22.5 32.5-30.5 8.5-7.9 25.6-23.9 38-35.4 12.4-11.5 28.1-26.2 35-32.5 21-19.6 43.2-40.3 50-46.8 7.6-7.3 11.3-8.2 14.9-3.7zm526.2 30.1c11.2 10.3 26.9 24.8 34.9 32.2 8 7.5 24.6 22.9 37 34.2 12.4 11.4 30.4 28 40 36.9 9.6 8.9 27.1 25 38.8 35.8 11.6 10.7 21.2 19.8 21.2 20.1-.1 2.1-6.3 6.6-45.8 33.2-34.6 23.3-41.8 27.9-43.9 27.9-1.6 0-3.2-1.3-28.5-24.5-9.6-8.8-28.4-26.1-41.9-38.4-48.4-44.4-69.5-63.7-75.9-69.7-3.6-3.3-11.4-10.5-17.5-15.9-21.3-19-24.5-22.5-24.5-26.6 0-9.6 11.3-23.6 28.2-34.6 8.9-5.8 53.9-29.2 56.4-29.3.6 0 10.2 8.4 21.5 18.7zM465.4 651c12.2 6 26.4 13.7 31.6 17.1 16.5 10.5 27.5 23.3 29.5 34 .8 4.4-.6 6.3-16.5 20.8-6.4 5.8-23.9 21.8-39 35.6-15 13.7-31 28.4-35.5 32.5-4.6 4.1-23.5 21.4-42.1 38.5-18.6 17-37.8 34.7-42.8 39.3-5 4.6-10.1 8.8-11.3 9.4-2.6 1.3-2.1 1.5-46.5-28.4-37-25-44.3-30.2-44.3-31.5 0-.6 4.1-4.8 9-9.3 12.3-11.4 15.9-14.7 40-37 11.6-10.8 29.1-27 39-36 9.9-9.1 18.2-16.7 18.5-17 .9-.9 38.4-35.7 62.4-57.9C430 649.5 441 640 441.8 640c.9 0 11.5 4.9 23.6 11zm341.1 25.8c20.5 1.4 25 2 25.3 3.2.3 1.6-24.3 39.5-27.4 42.1-1.6 1.5-11.9 4.9-36.6 12.4-7.2 2.2-9.2 1.2-7.7-3.8.5-1.8 1.8-11.3 2.9-21.2 1.9-17.2 3.4-28.3 4.5-33.3.5-2.2.8-2.3 7.3-1.7 3.7.4 17.9 1.4 31.7 2.3zm-207.2 2.4c1.3 5.9 6.1 43.4 7 55.3.2 1.7-.4 2-3.3 1.9-5-.1-38.6-10.8-41.2-13-2.8-2.6-27-39.3-27.2-41.3-.1-1.8.5-1.9 37.8-4.5 12.1-.9 22.2-1.8 22.4-2.1 1-.9 4 1.6 4.5 3.7zm148.1 14.5c-.3 4.9-1.7 18-2.9 29.2-2.6 23.8-.7 20.6-18.5 31.1-20.6 12-32.2 18.1-33.6 17.6-1.1-.4-1.4-5.4-1.4-26.9 0-23.9.2-26.5 1.8-27.9.9-.8 10.7-6.8 21.7-13.3 11-6.5 22.3-13.3 25-15.1 8.2-5.4 8.7-5 7.9 5.3zm-124.9-6.3c1.1.7 12.6 7.5 25.5 15.1 12.9 7.5 24.3 14.4 25.3 15.2 1.5 1.5 1.7 4.1 1.7 28.4 0 17.5-.4 27-1 27.4-.6.4-2.3-.1-3.8-1.1s-5.2-3.2-8.3-4.8c-17.2-9.4-32.4-18.4-35-20.6-2.9-2.4-3-2.9-4.4-17.5-.8-8.3-2.1-21-2.9-28.4-1.8-15.7-1.5-16.8 2.9-13.7zm216.2 31.9c1.2.7 11.5 10.2 23 21.2 20.4 19.7 46.3 44.4 85.3 81.4 10.7 10.2 25.4 24.2 32.5 31.1 7.2 6.9 17.4 16.7 22.8 21.8 5.3 5.1 9.7 9.8 9.7 10.5 0 1.6-9.2 10.7-10.8 10.7-1.4 0-21.3-18.2-58.7-53.5-41.6-39.3-84.4-79.5-91-85.5-14.3-12.9-25.6-24.4-26.1-26.7-.8-3.2.4-7.4 2.8-10.1 2.4-2.5 7-2.9 10.5-.9zm-300 1.2c2.8 2 4.8 8.7 3.4 11.4-1.1 2-31.1 30.9-52.5 50.7-11.4 10.5-50 46.5-71.6 67-36.9 34.8-47.5 44.7-49.6 46.1-2.3 1.5-2.6 1.4-7.2-2.8-5.6-5.1-6.4-6.3-5.6-8.1.4-.7 4.3-4.7 8.8-8.8 10.5-9.7 40-37.7 69.6-66 58.4-56 90.7-86.7 93.4-88.8 3.3-2.6 8.2-2.9 11.3-.7z"/></svg>